<svg xmlns="http://www.w3.org/2000/svg" width="752" height="32">
<symbol width="32" height="32" viewBox="0 0 32 32" id="youtube">
<path fill="#fbfbfb" opacity=".8" d="M24.24 6c-1.36-.08-4.16-.16-8.4-.16h-.56c-4.08 0-6.8.08-8.16.24-1.84.16-3.12.64-3.84 1.28-.64.56-1.12 1.6-1.28 2.96-.08.88-.16 2.72-.16 5.52v.4c0 2.64.08 4.48.24 5.36.24 1.28.64 2.24 1.44 2.8.8.64 2.16 1.04 4.08 1.2 1.36.08 4.16.16 8.4.16h.56c4.08 0 6.8-.08 8.16-.24 1.84-.16 3.12-.64 3.84-1.28.64-.56 1.12-1.6 1.28-2.96.08-.88.16-2.72.16-5.52v-.4c0-2.64-.08-4.48-.24-5.36-.24-1.28-.64-2.24-1.44-2.8-.8-.64-2.16-1.04-4.08-1.2zm-3.12 9.84-8.8 5.28V10.56l8.8 5.28z"/>
</symbol>
<symbol width="32" height="32" viewBox="0 0 32 32" x="48" id="instagram">
<path fill="#fbfbfb" opacity=".8" d="M28.718 10.756a9.264 9.264 0 0 0-.596-3.145 6.547 6.547 0 0 0-3.743-3.737 9.42 9.42 0 0 0-3.108-.596c-1.367-.061-1.801-.078-5.273-.078s-3.916 0-5.274.078a9.418 9.418 0 0 0-3.106.596 6.541 6.541 0 0 0-3.743 3.737 9.288 9.288 0 0 0-.596 3.101c-.061 1.367-.08 1.8-.08 5.265s0 3.909.08 5.265a9.34 9.34 0 0 0 .596 3.104 6.548 6.548 0 0 0 3.744 3.735 9.37 9.37 0 0 0 3.106.639c1.369.061 1.803.079 5.274.079s3.917 0 5.274-.079a9.357 9.357 0 0 0 3.108-.595 6.555 6.555 0 0 0 3.743-3.737 9.346 9.346 0 0 0 .596-3.104c.061-1.365.079-1.798.079-5.265-.003-3.466-.003-3.906-.082-5.264zM15.99 22.531c-3.631 0-6.572-2.936-6.572-6.561s2.941-6.561 6.572-6.561c3.628 0 6.572 2.936 6.572 6.561s-2.944 6.561-6.572 6.561zm6.834-11.835a1.53 1.53 0 1 1 0-3.06 1.53 1.53 0 1 1 0 3.06z"/>
<path fill="#fbfbfb" opacity=".8" d="M15.992 19.976a4.004 4.004 0 1 0 0-8.009 4.004 4.004 0 0 0 0 8.009z"/>
</symbol>
<symbol width="32" height="32" viewBox="0 0 32 32" x="96" id="facebook">
<path fill="#fbfbfb" d="M19.52 4.64h.96v3.6h-1.2c-.48 0-.96 0-1.2.24s-.24.48-.24 1.04v1.28h2.64v3.04h-2.64v13.2h-4.08V13.76H11.6v-3.04h2.16V9.68c0-1.76.24-3.04.72-3.6.72-1.04 2.16-1.52 4.32-1.52.24.08.48.08.72.08z"/>
</symbol>
<symbol width="32" height="32" viewBox="0 0 32 32" x="144" id="close-menu">
<path fill="none" stroke="#fbfbfb" stroke-width="2.353" stroke-linecap="round" stroke-linejoin="round" d="M24 8 8 24M8 8l16 16"/>
</symbol>
<symbol width="32" height="32" viewBox="0 0 32 32" x="192" id="open-menu">
<path d="m3.443 10.308.211-.12h24.693l.211.12.006.003a1.172 1.172 0 0 1-.006 2.047l-.211.12H3.654l-.211-.12-.006-.003a1.172 1.172 0 0 1 .006-2.047zm0 9.333.211-.12h24.693l.211.12.006.003a1.172 1.172 0 0 1-.006 2.047l-.211.12H3.654l-.211-.12-.006-.003a1.172 1.172 0 0 1 .006-2.047z"/>
</symbol>
</svg>